# xmcd CD database file
# Copyright (C) 1993-1996 Ti Kan
#
# Track frame offsets:
# 150
# 13950
# 31872
# 50510
# 70262
# 87837
# 102325
# 122555
# 140757
# 157125
# 173027
#
# Disc length: 2537 seconds
# Revision: 0
# Processed by: cddbd v1.4b41PL1 Copyright (c) Steve Scherf et al.
# Submitted via: CDSpectrumPro v3.2.327
#
DISCID=9509e70b
DTITLE=Gary Fjellgaard - Winds Of October
DYEAR=1900
DGENRE=
TTITLE0=Heartbroken Hero
TTITLE1=Drifting Cowboy
TTITLE2=Fire And Lace
TTITLE3=Remember When
TTITLE4=Two Gun Kid
TTITLE5=Moment Of Glory
TTITLE6=Winds Of October
TTITLE7=Island In The Storm
TTITLE8=The Way I Am
TTITLE9=Never Say Goodbye
TTITLE10=The Last Hurrah
EXTD=
EXTT0=
EXTT1=
EXTT2=
EXTT3=
EXTT4=
EXTT5=
EXTT6=
EXTT7=
EXTT8=
EXTT9=
EXTT10=
PLAYORDER=
